<?xml version="1.0" standalone="no"?><!DOCTYPE svg PUBLIC "-//W3C//DTD SVG 1.1//EN" "http://www.w3.org/Graphics/SVG/1.1/DTD/svg11.dtd"><svg t="1746500225760" class="icon" viewBox="0 0 1024 1024" version="1.1" xmlns="http://www.w3.org/2000/svg" p-id="3332" xmlns:xlink="http://www.w3.org/1999/xlink" width="200" height="200"><path d="M512 0C229.216 0 0 229.216 0 512s229.216 512 512 512 512-229.216 512-512S794.784 0 512 0zM314.4 186.784a40.416 40.416 0 1 1-40.416 40.448 40.315 40.315 0 0 1 40.416-40.416z m-30.784 129.632h61.6v428.416h-61.6z m151.968 0h166.4c158.368 0 228 113.184 228 214.4 0 109.984-86.016 214.4-227.2 214.4h-167.2z m61.6 55.584v317.6H595.2c139.616 0 171.616-105.984 171.616-158.816 0-86.016-54.784-158.816-174.816-158.816z" fill="#A6CE39" p-id="3333"></path></svg>